<?xml version="1.0" encoding="UTF-8" standalone="no"?>
<svg width="340px" height="280px" viewBox="0 0 340 280" version="1.1" xmlns="http://www.w3.org/2000/svg" xmlns:xlink="http://www.w3.org/1999/xlink" xmlns:sketch="http://www.bohemiancoding.com/sketch/ns">
    <!-- Generator: Sketch 3.3.2 (12043) - http://www.bohemiancoding.com/sketch -->
    <title>Rectangle 1</title>
    <desc>Created with Sketch.</desc>
    <defs></defs>
    <g id="Page-1" stroke="none" stroke-width="1" fill="none" fill-rule="evenodd" sketch:type="MSPage">
        <g id="cheesburger-open" sketch:type="MSArtboardGroup" transform="translate(-80.000000, -100.000000)" fill="#FFFFFF">
            <g id="Icon" sketch:type="MSLayerGroup">
                <path d="M250,100 C170.527344,100 138.979634,111.158571 138.979634,111.158571 C117.451776,116.041557 100,137.900403 100,160.000022 L100,180 L400,180 L400,160.000022 C400,137.90862 382.614945,115.678769 361.001335,111.154931 C361.001335,111.154931 329.472656,100 250,100 Z M130.000191,380 C113.431543,380 100,366.572185 100,350 L100,320 L400,320 L400,350 C400,366.568542 386.575801,380 369.999809,380 L130.000191,380 Z M110.004962,220 C93.4336793,220 80,233.427815 80,250 C80,266.568542 93.4331243,280 110.004962,280 L389.995038,280 C406.566321,280 420,266.572185 420,250 C420,233.431458 406.566876,220 389.995038,220 L110.004962,220 Z M278.761924,260 L359.919869,220 L229.919869,220 L278.761924,260 Z" id="Rectangle-1" sketch:type="MSShapeGroup"></path>
            </g>
        </g>
    </g>
</svg>